<svg width="59" height="58" viewBox="0 0 59 58" fill="none" xmlns="http://www.w3.org/2000/svg">
<path d="M56.3836 16.4303H47.2539L52.7025 9.61857C53.3187 8.83191 53.2701 7.65191 52.5728 6.93675L50.2214 4.57663C49.5404 3.87936 48.4701 3.9331 47.8539 4.68401C47.8377 4.70189 47.8377 4.70192 47.8214 4.7198L38.4323 16.4303H22.1027C21.6162 16.4482 21.2432 16.8952 21.2756 17.4316C21.2919 17.9322 21.6486 18.3256 22.1027 18.3434H36.9242L33.1134 23.0993C32.8053 23.4747 32.6594 23.9751 32.6756 24.4757C32.6756 24.5294 32.6918 24.6011 32.6918 24.6547L31.3783 28.6237C31.1837 29.2137 31.3296 29.8751 31.7513 30.2864C32.1567 30.6976 32.7729 30.8048 33.2594 30.5188L36.6485 28.6237H36.7134H36.8107C37.2647 28.6059 37.6864 28.3735 37.9783 27.998L45.7296 18.3255H56.3836C56.5457 18.3255 56.6754 18.4684 56.6754 18.6472V55.6028C56.6754 55.7816 56.5457 55.9247 56.3998 55.9247H50.1728C49.6863 55.9426 49.3133 56.3894 49.3458 56.9258C49.362 57.4264 49.7187 57.8198 50.1728 57.8376H56.3836C57.4863 57.8198 58.3781 56.8186 58.3781 55.6028V18.6472C58.3944 17.4494 57.5025 16.4482 56.3836 16.4303ZM51.4376 8.34925L50.416 9.61857L48.0971 7.27635L49.1187 6.00702L51.4376 8.34925ZM46.9458 8.70674L47.4647 9.24319L34.9134 24.9227L34.3945 24.3865L46.9458 8.70674ZM33.908 26.4782L34.8972 27.4795L33.2918 28.3734L33.908 26.4782ZM36.7134 26.7285L36.1945 26.1923L48.7458 10.5125L49.2647 11.0487L36.7134 26.7285Z" fill="#EA1616"/>
<path d="M46.4431 55.9428H7.97853C4.49207 55.9071 1.68669 52.7603 1.71912 48.9164V48.4157C1.7029 44.5718 4.49207 41.4431 7.97853 41.3895H9.72987C10.8326 41.3716 11.7244 40.3704 11.7244 39.1546V18.3795H18.3892C18.8757 18.3795 19.2649 17.9503 19.2649 17.4139C19.2649 16.8776 18.8757 16.4484 18.3892 16.4484H11.7244V13.123C11.7244 12.6045 11.3353 12.1754 10.865 12.1754C10.3947 12.1754 10.0055 12.6045 10.0055 13.123V39.1367C10.0055 39.3155 9.87581 39.4584 9.71365 39.4584H7.96231C5.51368 39.4584 3.19478 40.7279 1.7029 42.8733V8.9394C1.67047 5.09546 4.47585 1.94869 7.96231 1.91294H9.71365C9.87581 1.91294 10.0055 2.05606 10.0055 2.23485V8.9573C10.0055 9.47578 10.3947 9.90493 10.865 9.90493C11.3353 9.90493 11.7244 9.47578 11.7244 8.9573V2.23485C11.7244 1.01909 10.8326 0.0178788 9.72987 0H7.97853C3.53532 0.0536364 -0.0322128 4.04061 0.000219386 8.9394V48.9164C-0.0322128 53.8152 3.53532 57.8021 7.97853 57.8558H46.4431C46.9295 57.8558 47.3187 57.4266 47.3187 56.8902C47.3187 56.3718 46.9295 55.9428 46.4431 55.9428Z" fill="#EA1616"/>
<path d="M45.6322 26.8182C42.162 26.8182 39.2755 29.8038 39.0647 33.6299H35.1242C34.654 33.6299 34.2648 34.059 34.2648 34.5775V45.3406C34.2648 45.8591 34.654 46.2882 35.1242 46.2882H44.8863C45.3566 46.2882 45.7458 45.8591 45.7458 45.3406V41.3179C49.3782 41.2821 52.2971 38.0104 52.2646 34.0055C52.2484 29.9828 49.2646 26.7824 45.6322 26.8182ZM44.0593 39.1367C42.5512 38.5646 41.3999 37.2057 40.962 35.5073H44.0593V39.1367ZM35.9999 44.393V35.5073H39.1945C39.7134 38.2427 41.5944 40.4239 44.0593 41.0854V44.3751H35.9999V44.393ZM45.762 39.4226V34.5775C45.762 34.059 45.3728 33.6299 44.9025 33.6299H40.7836C40.9944 30.6799 43.3458 28.4808 46.0214 28.7132C48.6971 28.9456 50.6917 31.5382 50.4809 34.4883C50.2863 37.2237 48.243 39.3511 45.762 39.4226Z" fill="#EA1616"/>
<path d="M48.8106 42.0149C48.3404 42.0149 47.9512 42.444 47.9512 42.9625C47.9512 43.481 48.3404 43.9099 48.8106 43.9099H50.7078C51.1781 43.9099 51.5673 43.481 51.5673 42.9625C51.5673 42.444 51.1781 42.0149 50.7078 42.0149H48.8106Z" fill="#EA1616"/>
<path d="M51.5673 45.4301C51.5673 44.9116 51.1781 44.4824 50.7078 44.4824H48.8106C48.3404 44.4824 47.9512 44.9116 47.9512 45.4301C47.9512 45.9485 48.3404 46.3775 48.8106 46.3775H50.7078C51.1943 46.3775 51.5673 45.9485 51.5673 45.4301Z" fill="#EA1616"/>
<path d="M15.6325 26.1924H16.9947C17.4649 26.1924 17.8541 25.7633 17.8541 25.2448C17.8541 24.7263 17.4649 24.2972 16.9947 24.2972H15.6325C15.1623 24.2972 14.7731 24.7263 14.7731 25.2448C14.7731 25.7812 15.1623 26.1924 15.6325 26.1924Z" fill="#EA1616"/>
<path d="M15.6325 28.9816H22.2325C22.7028 28.9816 23.092 28.5524 23.092 28.034C23.092 27.5155 22.7028 27.0865 22.2325 27.0865H15.6325C15.1623 27.0865 14.7731 27.5155 14.7731 28.034C14.7731 28.5703 15.1623 28.9816 15.6325 28.9816Z" fill="#EA1616"/>
<path d="M20.8541 26.1924H22.2162C22.6865 26.1924 23.0756 25.7633 23.0756 25.2448C23.0756 24.7263 22.6865 24.2972 22.2162 24.2972H20.8541C20.3839 24.2972 19.9947 24.7263 19.9947 25.2448C20.0109 25.7812 20.3839 26.1924 20.8541 26.1924Z" fill="#EA1616"/>
<path d="M27.4703 24.3149H26.1081C25.6379 24.3149 25.2487 24.7441 25.2487 25.2626C25.2487 25.7811 25.6379 26.2102 26.1081 26.2102H27.4703C27.9406 26.2102 28.3298 25.7811 28.3298 25.2626C28.3136 24.7262 27.9406 24.3149 27.4703 24.3149Z" fill="#EA1616"/>
<path d="M15.6325 31.7527H22.2325C22.7028 31.7527 23.092 31.3235 23.092 30.805C23.092 30.2866 22.7028 29.8574 22.2325 29.8574H15.6325C15.1623 29.8574 14.7731 30.2866 14.7731 30.805C14.7731 31.3414 15.1623 31.7527 15.6325 31.7527Z" fill="#EA1616"/>
<path d="M14.7731 33.5942C14.7731 34.1127 15.1623 34.5416 15.6325 34.5416H26.0918C26.5621 34.5416 26.9513 34.1127 26.9513 33.5942C26.9513 33.0757 26.5621 32.6465 26.0918 32.6465H15.6325C15.1623 32.6465 14.7731 33.0578 14.7731 33.5942Z" fill="#EA1616"/>
<path d="M28.3135 36.3475C28.3135 35.829 27.9244 35.3999 27.4541 35.3999H15.6163C15.146 35.3999 14.7568 35.829 14.7568 36.3475C14.7568 36.866 15.146 37.2952 15.6163 37.2952H27.4541C27.9406 37.2952 28.3135 36.866 28.3135 36.3475Z" fill="#EA1616"/>
<path d="M18.8433 40.8533C18.8433 40.3348 18.4541 39.9056 17.9839 39.9056H15.6325C15.1623 39.9056 14.7731 40.3348 14.7731 40.8533V43.4456C14.7731 43.9641 15.1623 44.3932 15.6325 44.3932H17.9839C18.4541 44.3932 18.8433 43.9641 18.8433 43.4456V40.8533ZM17.1244 42.5161H16.4758V41.8009H17.1244V42.5161Z" fill="#EA1616"/>
<path d="M24.5026 40.8533C24.5026 40.3348 24.1134 39.9056 23.6432 39.9056H21.292C20.8217 39.9056 20.4326 40.3348 20.4326 40.8533V43.4456C20.4326 43.9641 20.8217 44.3932 21.292 44.3932H23.6432C24.1134 44.3932 24.5026 43.9641 24.5026 43.4456V40.8533ZM22.7838 42.5161H22.1351V41.8009H22.7838V42.5161Z" fill="#EA1616"/>
<path d="M30.1459 40.8533C30.1459 40.3348 29.7568 39.9056 29.2865 39.9056H26.919C26.4487 39.9056 26.0596 40.3348 26.0596 40.8533V43.4456C26.0596 43.9641 26.4487 44.3932 26.919 44.3932H29.2703C29.7405 44.3932 30.1297 43.9641 30.1297 43.4456L30.1459 40.8533ZM28.4433 42.5161H27.7947V41.8009H28.4433V42.5161Z" fill="#EA1616"/>
<path d="M17.9839 46.7711H15.6325C15.1623 46.7711 14.7731 47.2 14.7731 47.7185V50.3111C14.7731 50.8296 15.1623 51.2587 15.6325 51.2587H17.9839C18.4541 51.2587 18.8433 50.8296 18.8433 50.3111V47.7185C18.8433 47.1822 18.4541 46.7711 17.9839 46.7711ZM17.1244 49.3634H16.4758V48.6483H17.1244V49.3634Z" fill="#EA1616"/>
<path d="M23.6432 46.7711H21.292C20.8217 46.7711 20.4326 47.2 20.4326 47.7185V50.3111C20.4326 50.8296 20.8217 51.2587 21.292 51.2587H23.6432C24.1134 51.2587 24.5026 50.8296 24.5026 50.3111V47.7185C24.5026 47.1822 24.1134 46.7711 23.6432 46.7711ZM22.7838 49.3634H22.1351V48.6483H22.7838V49.3634Z" fill="#EA1616"/>
<path d="M26.9351 51.2587H29.2864C29.7567 51.2587 30.1459 50.8296 30.1459 50.3111V47.7185C30.1459 47.2 29.7567 46.7711 29.2864 46.7711H26.9351C26.4649 46.7711 26.0757 47.2 26.0757 47.7185V50.3111C26.0757 50.8296 26.4649 51.2587 26.9351 51.2587ZM27.7946 48.6483H28.4432V49.3634H27.7946V48.6483Z" fill="#EA1616"/>
</svg>
