<svg width="59" height="69" viewBox="0 0 59 69" fill="none" xmlns="http://www.w3.org/2000/svg">
<path d="M38.0703 22.7914H20.8773C20.206 22.7914 19.6492 23.4371 19.6492 24.2159V29.9138C19.6492 30.6925 20.206 31.3383 20.8773 31.3383H38.0703C38.7416 31.3383 39.2983 30.6925 39.2983 29.9138V24.2159C39.2983 23.4371 38.7416 22.7914 38.0703 22.7914ZM36.8422 28.4893H22.1054V25.6403H36.8422V28.4893Z" fill="#EA1616"/>
<path d="M38.0703 37.0368H20.8773C20.206 37.0368 19.6492 37.6826 19.6492 38.4613V44.1592C19.6492 44.9379 20.206 45.5836 20.8773 45.5836H38.0703C38.7416 45.5836 39.2983 44.9379 39.2983 44.1592V38.4613C39.2983 37.6826 38.7416 37.0368 38.0703 37.0368ZM36.8422 42.7347H22.1054V39.8858H36.8422V42.7347Z" fill="#EA1616"/>
<path d="M38.0703 51.2811H20.8773C20.206 51.2811 19.6492 51.9269 19.6492 52.7056V58.4035C19.6492 59.1823 20.206 59.828 20.8773 59.828H38.0703C38.7416 59.828 39.2983 59.1823 39.2983 58.4035V52.7056C39.2983 51.9269 38.7416 51.2811 38.0703 51.2811ZM36.8422 56.9791H22.1054V54.1301H36.8422V56.9791Z" fill="#EA1616"/>
<path d="M57.7192 11.3958H44.2104V1.42448C44.2104 0.645764 43.6537 0 42.9824 0H15.9649C15.2935 0 14.7368 0.645764 14.7368 1.42448V11.3958H1.22807C0.556724 11.3958 0 12.0416 0 12.8203V35.612C0 36.3907 0.556724 37.0364 1.22807 37.0364C1.89941 37.0364 2.45614 36.3907 2.45614 35.612V28.4896H14.7368V51.2812H2.45614V44.1588C2.45614 43.3801 1.89941 42.7344 1.22807 42.7344C0.556724 42.7344 0 43.3801 0 44.1588V66.9505C0 67.7292 0.556724 68.375 1.22807 68.375H57.7192C58.3905 68.375 58.9473 67.7292 58.9473 66.9505V44.1588C58.9473 43.3801 58.3905 42.7344 57.7192 42.7344C57.0479 42.7344 56.4911 43.3801 56.4911 44.1588V51.2812H44.2104V28.4896H56.4911V35.612C56.4911 36.3907 57.0479 37.0364 57.7192 37.0364C58.3905 37.0364 58.9473 36.3907 58.9473 35.612V12.8203C58.9473 12.0416 58.3905 11.3958 57.7192 11.3958ZM17.193 2.84896H41.7543V14.2448H17.193V2.84896ZM2.45614 25.6406V14.2448H14.7368V25.6406H2.45614ZM14.7368 54.1302V65.526H2.45614V54.1302H14.7368ZM17.193 17.0937H41.7543V65.526H17.193V17.0937ZM56.4911 54.1302V65.526H44.2104V54.1302H56.4911ZM44.2104 25.6406V14.2448H56.4911V25.6406H44.2104Z" fill="#EA1616"/>
<path d="M1.22809 41.3101C1.90634 41.3101 2.45618 40.6723 2.45618 39.8856C2.45618 39.0989 1.90634 38.4611 1.22809 38.4611C0.549834 38.4611 0 39.0989 0 39.8856C0 40.6723 0.549834 41.3101 1.22809 41.3101Z" fill="#EA1616"/>
<path d="M57.7193 41.3101C58.3976 41.3101 58.9474 40.6723 58.9474 39.8856C58.9474 39.0989 58.3976 38.4611 57.7193 38.4611C57.0411 38.4611 56.4913 39.0989 56.4913 39.8856C56.4913 40.6723 57.0411 41.3101 57.7193 41.3101Z" fill="#EA1616"/>
</svg>
