<svg width="60" height="60" viewBox="0 0 60 60" fill="none" xmlns="http://www.w3.org/2000/svg">
<rect y="0.678528" width="0.678558" height="2.96296" transform="rotate(-90 0 0.678528)" fill="#EA1616"/>
<rect width="0.703337" height="2.86545" transform="matrix(0.731171 -0.682195 0.731171 0.682195 0.34668 7.96088)" fill="#EA1616"/>
<rect width="0.707552" height="2.84817" transform="matrix(0.787396 -0.616448 0.668694 0.743538 0.43457 16.1655)" fill="#EA1616"/>
<rect width="0.715405" height="2.81542" transform="matrix(0.880392 -0.474247 0.526202 0.85036 0.633789 24.3043)" fill="#EA1616"/>
<rect width="0.724112" height="2.77823" transform="matrix(0.970142 -0.242537 0.276028 0.96115 0.97876 32.432)" fill="#EA1616"/>
<rect width="0.725852" height="2.77069" transform="matrix(0.986736 -0.162334 0.185699 0.982607 1.10266 40.6895)" fill="#EA1616"/>
<rect width="0.726915" height="2.76606" transform="matrix(0.996685 -0.0813578 0.0933601 0.995632 1.22937 48.9573)" fill="#EA1616"/>
<rect x="1.35803" y="57.2355" width="0.727273" height="2.76449" fill="#EA1616"/>
<rect x="8.14807" y="0.678528" width="0.678558" height="2.96296" transform="rotate(-90 8.14807 0.678528)" fill="#EA1616"/>
<rect width="0.703337" height="2.86545" transform="matrix(0.731171 -0.682195 0.731171 0.682195 8.49475 7.96088)" fill="#EA1616"/>
<rect width="0.707552" height="2.84817" transform="matrix(0.787396 -0.616448 0.668694 0.743538 8.58276 16.1655)" fill="#EA1616"/>
<rect width="0.715405" height="2.81542" transform="matrix(0.880392 -0.474247 0.526202 0.85036 8.78198 24.3043)" fill="#EA1616"/>
<rect width="0.724112" height="2.77823" transform="matrix(0.970142 -0.242537 0.276028 0.96115 9.12695 32.432)" fill="#EA1616"/>
<rect width="0.725852" height="2.77069" transform="matrix(0.986736 -0.162334 0.185699 0.982607 9.25073 40.6895)" fill="#EA1616"/>
<rect width="0.726915" height="2.76606" transform="matrix(0.996685 -0.0813578 0.0933601 0.995632 9.37756 48.9573)" fill="#EA1616"/>
<rect x="9.50623" y="57.2355" width="0.727273" height="2.76449" fill="#EA1616"/>
<rect x="16.2963" y="0.678528" width="0.678558" height="2.96296" transform="rotate(-90 16.2963 0.678528)" fill="#EA1616"/>
<rect width="0.703337" height="2.86545" transform="matrix(0.731171 -0.682195 0.731171 0.682195 16.6429 7.96088)" fill="#EA1616"/>
<rect width="0.707552" height="2.84817" transform="matrix(0.787396 -0.616448 0.668694 0.743538 16.731 16.1655)" fill="#EA1616"/>
<rect width="0.715405" height="2.81542" transform="matrix(0.880392 -0.474247 0.526202 0.85036 16.9302 24.3043)" fill="#EA1616"/>
<rect width="0.724112" height="2.77823" transform="matrix(0.970142 -0.242537 0.276028 0.96115 17.2751 32.432)" fill="#EA1616"/>
<rect width="0.725852" height="2.77069" transform="matrix(0.986736 -0.162334 0.185699 0.982607 17.3989 40.6895)" fill="#EA1616"/>
<rect width="0.726915" height="2.76606" transform="matrix(0.996685 -0.0813578 0.0933601 0.995632 17.5256 48.9573)" fill="#EA1616"/>
<rect x="17.6543" y="57.2355" width="0.727273" height="2.76449" fill="#EA1616"/>
<rect x="24.4445" y="0.678528" width="0.678558" height="2.96296" transform="rotate(-90 24.4445 0.678528)" fill="#EA1616"/>
<rect width="0.703337" height="2.86545" transform="matrix(0.731171 -0.682195 0.731171 0.682195 24.7911 7.96088)" fill="#EA1616"/>
<rect width="0.707552" height="2.84817" transform="matrix(0.787396 -0.616448 0.668694 0.743538 24.8792 16.1655)" fill="#EA1616"/>
<rect width="0.715405" height="2.81542" transform="matrix(0.880392 -0.474247 0.526202 0.85036 25.0784 24.3043)" fill="#EA1616"/>
<rect width="0.724112" height="2.77823" transform="matrix(0.970142 -0.242537 0.276028 0.96115 25.4233 32.432)" fill="#EA1616"/>
<rect width="0.725852" height="2.77069" transform="matrix(0.986736 -0.162334 0.185699 0.982607 25.5471 40.6895)" fill="#EA1616"/>
<rect width="0.726915" height="2.76606" transform="matrix(0.996685 -0.0813578 0.0933601 0.995632 25.6738 48.9573)" fill="#EA1616"/>
<rect x="25.8025" y="57.2355" width="0.727273" height="2.76449" fill="#EA1616"/>
<rect x="32.5925" y="0.678528" width="0.678558" height="2.96296" transform="rotate(-90 32.5925 0.678528)" fill="#EA1616"/>
<rect width="0.703337" height="2.86545" transform="matrix(0.731171 -0.682195 0.731171 0.682195 32.9392 7.96088)" fill="#EA1616"/>
<rect width="0.707552" height="2.84817" transform="matrix(0.787396 -0.616448 0.668694 0.743538 33.0272 16.1655)" fill="#EA1616"/>
<rect width="0.715405" height="2.81542" transform="matrix(0.880392 -0.474247 0.526202 0.85036 33.2264 24.3043)" fill="#EA1616"/>
<rect width="0.724112" height="2.77823" transform="matrix(0.970142 -0.242537 0.276028 0.96115 33.5714 32.432)" fill="#EA1616"/>
<rect width="0.725852" height="2.77069" transform="matrix(0.986736 -0.162334 0.185699 0.982607 33.6953 40.6895)" fill="#EA1616"/>
<rect width="0.726915" height="2.76606" transform="matrix(0.996685 -0.0813578 0.0933601 0.995632 33.822 48.9573)" fill="#EA1616"/>
<rect x="33.9506" y="57.2355" width="0.727273" height="2.76449" fill="#EA1616"/>
<rect x="40.7407" y="0.678528" width="0.678558" height="2.96296" transform="rotate(-90 40.7407 0.678528)" fill="#EA1616"/>
<rect width="0.703337" height="2.86545" transform="matrix(0.731171 -0.682195 0.731171 0.682195 41.0874 7.96088)" fill="#EA1616"/>
<rect width="0.707552" height="2.84817" transform="matrix(0.787396 -0.616448 0.668694 0.743538 41.1754 16.1655)" fill="#EA1616"/>
<rect width="0.715405" height="2.81542" transform="matrix(0.880392 -0.474247 0.526202 0.85036 41.3746 24.3043)" fill="#EA1616"/>
<rect width="0.724112" height="2.77823" transform="matrix(0.970142 -0.242537 0.276028 0.96115 41.7195 32.432)" fill="#EA1616"/>
<rect width="0.725852" height="2.77069" transform="matrix(0.986736 -0.162334 0.185699 0.982607 41.8434 40.6895)" fill="#EA1616"/>
<rect width="0.726915" height="2.76606" transform="matrix(0.996685 -0.0813578 0.0933601 0.995632 41.9701 48.9573)" fill="#EA1616"/>
<rect x="42.0988" y="57.2355" width="0.727273" height="2.76449" fill="#EA1616"/>
<rect x="48.8889" y="0.678528" width="0.678558" height="2.96296" transform="rotate(-90 48.8889 0.678528)" fill="#EA1616"/>
<rect width="0.703337" height="2.86545" transform="matrix(0.731171 -0.682195 0.731171 0.682195 49.2355 7.96088)" fill="#EA1616"/>
<rect width="0.707552" height="2.84817" transform="matrix(0.787396 -0.616448 0.668694 0.743538 49.3235 16.1655)" fill="#EA1616"/>
<rect width="0.715405" height="2.81542" transform="matrix(0.880392 -0.474247 0.526202 0.85036 49.5227 24.3043)" fill="#EA1616"/>
<rect width="0.724112" height="2.77823" transform="matrix(0.970142 -0.242537 0.276028 0.96115 49.8677 32.432)" fill="#EA1616"/>
<rect width="0.725852" height="2.77069" transform="matrix(0.986736 -0.162334 0.185699 0.982607 49.9916 40.6895)" fill="#EA1616"/>
<rect width="0.726915" height="2.76606" transform="matrix(0.996685 -0.0813578 0.0933601 0.995632 50.1183 48.9573)" fill="#EA1616"/>
<rect x="50.2468" y="57.2355" width="0.727273" height="2.76449" fill="#EA1616"/>
<rect x="57.0371" y="0.678528" width="0.678558" height="2.96296" transform="rotate(-90 57.0371 0.678528)" fill="#EA1616"/>
<rect width="0.703337" height="2.86545" transform="matrix(0.731171 -0.682195 0.731171 0.682195 57.3835 7.96088)" fill="#EA1616"/>
<rect width="0.707552" height="2.84817" transform="matrix(0.787396 -0.616448 0.668694 0.743538 57.4717 16.1655)" fill="#EA1616"/>
<rect width="0.715405" height="2.81542" transform="matrix(0.880392 -0.474247 0.526202 0.85036 57.6709 24.3043)" fill="#EA1616"/>
<rect width="0.724112" height="2.77823" transform="matrix(0.970142 -0.242537 0.276028 0.96115 58.0159 32.432)" fill="#EA1616"/>
<rect width="0.725852" height="2.77069" transform="matrix(0.986736 -0.162334 0.185699 0.982607 58.1396 40.6895)" fill="#EA1616"/>
<rect width="0.726915" height="2.76606" transform="matrix(0.996685 -0.0813578 0.0933601 0.995632 58.2665 48.9573)" fill="#EA1616"/>
<rect x="58.395" y="57.2355" width="0.727273" height="2.76449" fill="#EA1616"/>
</svg>
