<svg width="15" height="14" viewBox="0 0 15 14" fill="none" xmlns="http://www.w3.org/2000/svg">
<path d="M1.88691 13.0444L1.95039 13.7917L1.95039 13.7917L1.88691 13.0444ZM4.42377 12.829L4.3603 12.0816L4.3603 12.0816L4.42377 12.829ZM5.4487 12.3949L4.94085 11.843L4.94085 11.843L5.4487 12.3949ZM13.5386 4.95076L14.0464 5.50266L14.0464 5.50266L13.5386 4.95076ZM13.3609 2.95125L13.7824 2.33092L13.7824 2.33092L13.3609 2.95125ZM11.8307 1.91144L11.4092 2.53178L11.4092 2.53178L11.8307 1.91144ZM9.65907 2.03249L9.16209 1.47079L9.16209 1.47079L9.65907 2.03249ZM1.44949 9.29624L0.952501 8.73454L0.952501 8.73454L1.44949 9.29624ZM9.11055 2.9255C8.7781 2.67842 8.3083 2.74762 8.06121 3.08007C7.81413 3.41252 7.88333 3.88232 8.21578 4.12941L9.11055 2.9255ZM11.4424 6.52748C11.7748 6.77457 12.2446 6.70536 12.4917 6.37292C12.7388 6.04047 12.6696 5.57066 12.3371 5.32358L11.4424 6.52748ZM8.66317 12.3698C8.24895 12.3698 7.91317 12.7056 7.91317 13.1198C7.91317 13.534 8.24895 13.8698 8.66317 13.8698V12.3698ZM13.5031 13.8698C13.9173 13.8698 14.2531 13.534 14.2531 13.1198C14.2531 12.7056 13.9173 12.3698 13.5031 12.3698V13.8698ZM0.25 10.2452V12.3627H1.75V10.2452H0.25ZM1.95039 13.7917L4.48725 13.5763L4.3603 12.0816L1.82344 12.2971L1.95039 13.7917ZM5.95655 12.9468L14.0464 5.50266L13.0307 4.39887L4.94085 11.843L5.95655 12.9468ZM13.7824 2.33092L12.2522 1.29111L11.4092 2.53178L12.9394 3.57158L13.7824 2.33092ZM9.16209 1.47079L0.952501 8.73454L1.94647 9.85794L10.1561 2.59419L9.16209 1.47079ZM12.2522 1.29111C11.3254 0.661299 10.0045 0.725435 9.16209 1.47079L10.1561 2.59419C10.4697 2.31669 11.0325 2.27582 11.4092 2.53178L12.2522 1.29111ZM14.0464 5.50266C14.5267 5.06068 14.7629 4.45993 14.7089 3.85182C14.6551 3.24604 14.3195 2.69585 13.7824 2.33092L12.9394 3.57158C13.1331 3.70323 13.2038 3.86075 13.2148 3.98455C13.2256 4.10602 13.1852 4.25674 13.0307 4.39887L14.0464 5.50266ZM4.48725 13.5763C5.03087 13.5301 5.5561 13.3153 5.95655 12.9468L4.94085 11.843C4.806 11.9671 4.60195 12.0611 4.3603 12.0816L4.48725 13.5763ZM0.25 12.3627C0.25 13.3315 1.17201 13.8579 1.95039 13.7917L1.82344 12.2971C1.76722 12.3019 1.7323 12.2836 1.72247 12.2761C1.71846 12.273 1.72482 12.2766 1.7331 12.2921C1.74219 12.309 1.75 12.3342 1.75 12.3627H0.25ZM1.75 10.2452C1.75 10.1268 1.80291 9.98496 1.94647 9.85794L0.952501 8.73454C0.519219 9.1179 0.25 9.65614 0.25 10.2452H1.75ZM8.21578 4.12941L11.4424 6.52748L12.3371 5.32358L9.11055 2.9255L8.21578 4.12941ZM8.66317 13.8698H13.5031V12.3698H8.66317V13.8698Z" fill="white"/>
</svg>
