<svg xmlns="http://www.w3.org/2000/svg" xmlns:xlink="http://www.w3.org/1999/xlink" width="50" zoomAndPan="magnify" viewBox="0 0 37.5 37.499999" height="50" preserveAspectRatio="xMidYMid meet" version="1.0"><defs><clipPath id="id1"><path d="M 0.355469 19 L 37 19 L 37 35.21875 L 0.355469 35.21875 Z M 0.355469 19 " clip-rule="nonzero"/></clipPath><clipPath id="id2"><path d="M 11 2.21875 L 28 2.21875 L 28 27 L 11 27 Z M 11 2.21875 " clip-rule="nonzero"/></clipPath></defs><path fill="rgb(0%, 0%, 0%)" d="M 16.375 24.082031 C 16.175781 23.769531 16.003906 23.429688 15.804688 23.089844 C 14.128906 23.742188 13.050781 24.820312 13.050781 26.097656 C 13.050781 28.167969 15.921875 29.785156 19.582031 29.785156 C 23.246094 29.785156 26.117188 28.167969 26.117188 26.097656 C 26.117188 24.820312 25.035156 23.742188 23.359375 23.089844 C 23.160156 23.429688 22.964844 23.769531 22.792969 24.082031 C 24.15625 24.59375 24.980469 25.359375 24.980469 26.097656 C 24.980469 27.316406 22.765625 28.652344 19.582031 28.652344 C 16.402344 28.652344 14.1875 27.316406 14.1875 26.097656 C 14.1875 25.359375 15.011719 24.566406 16.375 24.082031 Z M 16.375 24.082031 " fill-opacity="1" fill-rule="nonzero"/><g clip-path="url(#id1)"><path fill="rgb(0%, 0%, 0%)" d="M 36.824219 33.644531 L 31.511719 20.023438 C 31.339844 19.597656 30.914062 19.285156 30.433594 19.285156 L 25.433594 19.285156 C 25.234375 19.683594 25.035156 20.050781 24.835938 20.421875 L 29.949219 20.421875 C 29.894531 20.675781 29.863281 21.015625 29.835938 21.414062 C 29.695312 23.03125 29.46875 25.445312 27.25 26.550781 C 27.167969 27.0625 26.996094 27.542969 26.710938 28 C 30.402344 26.949219 30.800781 23.570312 30.972656 21.640625 L 33.699219 28.652344 L 26.171875 28.652344 C 25.773438 29.078125 25.234375 29.472656 24.640625 29.785156 L 34.125 29.785156 L 35.800781 34.042969 L 14.839844 34.042969 C 15.097656 32.59375 15.578125 31.402344 16.289062 30.46875 C 15.890625 30.355469 15.523438 30.210938 15.179688 30.070312 C 14.472656 31.148438 13.960938 32.453125 13.703125 34.042969 L 9.558594 34.042969 C 9.558594 34.015625 9.53125 34.015625 9.53125 33.984375 C 8.648438 32.824219 7.96875 31.261719 8.480469 29.785156 L 14.613281 29.785156 C 14.015625 29.472656 13.507812 29.078125 13.078125 28.652344 L 9.105469 28.652344 C 9.472656 28.195312 9.898438 27.914062 10.324219 27.542969 C 13.933594 24.480469 11.601562 21.726562 10.609375 20.535156 C 10.582031 20.507812 10.550781 20.449219 10.496094 20.421875 L 14.386719 20.421875 C 14.1875 20.050781 13.988281 19.65625 13.789062 19.285156 L 7.03125 19.285156 C 6.546875 19.285156 6.121094 19.570312 5.953125 20.023438 C 5.953125 20.023438 0.640625 33.617188 0.640625 33.644531 C 0.355469 34.382812 0.925781 35.175781 1.71875 35.175781 C 1.71875 35.175781 35.714844 35.175781 35.800781 35.175781 C 36.539062 35.175781 37.105469 34.355469 36.824219 33.644531 Z M 7.03125 20.421875 L 9.105469 20.421875 C 9.1875 20.675781 9.417969 20.933594 9.699219 21.273438 C 10.722656 22.492188 12.285156 24.335938 9.585938 26.664062 C 9.359375 26.804688 8.367188 27.488281 7.710938 28.652344 L 3.792969 28.652344 Z M 1.691406 34.042969 L 3.367188 29.785156 L 7.230469 29.785156 C 7.199219 29.84375 7.199219 29.929688 7.171875 29.984375 C 6.917969 31.289062 7.230469 32.652344 8.136719 34.042969 Z M 1.691406 34.042969 " fill-opacity="1" fill-rule="nonzero"/></g><g clip-path="url(#id2)"><path fill="rgb(0%, 0%, 0%)" d="M 19.582031 26.664062 C 19.78125 26.664062 19.953125 26.550781 20.066406 26.410156 C 20.378906 25.925781 27.535156 14.460938 27.535156 10.234375 C 27.535156 5.921875 23.902344 2.261719 19.582031 2.261719 C 15.265625 2.261719 11.632812 5.921875 11.632812 10.234375 C 11.632812 14.433594 18.789062 25.898438 19.101562 26.410156 C 19.214844 26.550781 19.386719 26.664062 19.582031 26.664062 Z M 19.582031 3.394531 C 23.21875 3.394531 26.398438 6.601562 26.398438 10.234375 C 26.398438 13.527344 21.203125 22.324219 19.582031 25.019531 C 17.964844 22.351562 12.765625 13.527344 12.765625 10.234375 C 12.765625 6.601562 15.949219 3.394531 19.582031 3.394531 Z M 19.582031 3.394531 " fill-opacity="1" fill-rule="nonzero"/></g><path fill="rgb(0%, 0%, 0%)" d="M 22.707031 11.339844 C 22.707031 9.609375 21.316406 8.21875 19.582031 8.21875 C 17.851562 8.21875 16.460938 9.609375 16.460938 11.339844 C 16.460938 13.070312 17.851562 14.460938 19.582031 14.460938 C 21.316406 14.460938 22.707031 13.070312 22.707031 11.339844 Z M 17.59375 11.339844 C 17.59375 10.234375 18.476562 9.355469 19.582031 9.355469 C 20.691406 9.355469 21.570312 10.234375 21.570312 11.339844 C 21.570312 12.449219 20.691406 13.328125 19.582031 13.328125 C 18.476562 13.328125 17.59375 12.449219 17.59375 11.339844 Z M 17.59375 11.339844 " fill-opacity="1" fill-rule="nonzero"/></svg>