<svg xmlns="http://www.w3.org/2000/svg" xmlns:xlink="http://www.w3.org/1999/xlink" width="50" zoomAndPan="magnify" viewBox="0 0 37.5 37.499999" height="50" preserveAspectRatio="xMidYMid meet" version="1.0"><defs><clipPath id="id1"><path d="M 5.089844 3 L 30 3 L 30 37 L 5.089844 37 Z M 5.089844 3 " clip-rule="nonzero"/></clipPath><clipPath id="id2"><path d="M 7 0.535156 L 32.089844 0.535156 L 32.089844 35 L 7 35 Z M 7 0.535156 " clip-rule="nonzero"/></clipPath></defs><g clip-path="url(#id1)"><path fill="rgb(0%, 0%, 0%)" d="M 29.386719 36.136719 C 29.386719 36.515625 29.085938 36.824219 28.714844 36.824219 L 5.761719 36.824219 C 5.390625 36.824219 5.089844 36.515625 5.089844 36.136719 L 5.089844 4.4375 C 5.089844 4.058594 5.390625 3.75 5.761719 3.75 L 9.136719 3.75 L 9.136719 5.128906 L 6.4375 5.128906 L 6.4375 35.445312 L 28.039062 35.445312 L 28.039062 32.691406 L 29.386719 32.691406 Z M 29.386719 36.136719 " fill-opacity="1" fill-rule="nonzero"/></g><g clip-path="url(#id2)"><path fill="rgb(0%, 0%, 0%)" d="M 7.789062 33.378906 L 7.789062 1.683594 C 7.789062 1.300781 8.089844 0.992188 8.464844 0.992188 L 25.070312 0.992188 C 25.246094 0.992188 25.414062 1.066406 25.542969 1.195312 L 31.890625 7.675781 C 32.019531 7.804688 32.089844 7.976562 32.089844 8.15625 L 32.089844 33.378906 C 32.089844 33.757812 31.785156 34.070312 31.414062 34.070312 L 8.464844 34.070312 C 8.089844 34.070312 7.789062 33.757812 7.789062 33.378906 Z M 30.738281 32.691406 L 30.738281 9.261719 L 24.664062 9.261719 C 24.289062 9.261719 23.988281 8.953125 23.988281 8.574219 L 23.988281 2.371094 L 9.136719 2.371094 L 9.136719 32.691406 Z M 30.183594 7.882812 L 25.339844 2.9375 L 25.339844 7.882812 Z M 30.183594 7.882812 " fill-opacity="1" fill-rule="nonzero"/></g><path fill="rgb(0%, 0%, 0%)" d="M 27.363281 14.773438 L 12.511719 14.773438 C 12.140625 14.773438 11.839844 14.464844 11.839844 14.085938 C 11.839844 13.707031 12.140625 13.398438 12.511719 13.398438 L 27.363281 13.398438 C 27.734375 13.398438 28.039062 13.707031 28.039062 14.085938 C 28.039062 14.464844 27.734375 14.773438 27.363281 14.773438 Z M 21.964844 18.910156 L 12.511719 18.910156 C 12.140625 18.910156 11.839844 18.601562 11.839844 18.21875 C 11.839844 17.839844 12.140625 17.53125 12.511719 17.53125 L 21.964844 17.53125 C 22.335938 17.53125 22.636719 17.839844 22.636719 18.21875 C 22.636719 18.601562 22.335938 18.910156 21.964844 18.910156 Z M 24.664062 23.042969 L 12.511719 23.042969 C 12.140625 23.042969 11.839844 22.734375 11.839844 22.355469 C 11.839844 21.972656 12.140625 21.664062 12.511719 21.664062 L 24.664062 21.664062 C 25.035156 21.664062 25.339844 21.972656 25.339844 22.355469 C 25.339844 22.734375 25.035156 23.042969 24.664062 23.042969 Z M 19.261719 27.179688 L 12.511719 27.179688 C 12.140625 27.179688 11.839844 26.867188 11.839844 26.488281 C 11.839844 26.109375 12.140625 25.800781 12.511719 25.800781 L 19.261719 25.800781 C 19.636719 25.800781 19.9375 26.109375 19.9375 26.488281 C 19.9375 26.867188 19.636719 27.179688 19.261719 27.179688 Z M 19.261719 27.179688 " fill-opacity="1" fill-rule="nonzero"/></svg>