<svg xmlns="http://www.w3.org/2000/svg" xmlns:xlink="http://www.w3.org/1999/xlink" width="50" zoomAndPan="magnify" viewBox="0 0 37.5 37.499999" height="50" preserveAspectRatio="xMidYMid meet" version="1.0"><defs><clipPath id="id1"><path d="M 0.601562 0.601562 L 36.601562 0.601562 L 36.601562 36.601562 L 0.601562 36.601562 Z M 0.601562 0.601562 " clip-rule="nonzero"/></clipPath></defs><g clip-path="url(#id1)"><path fill="rgb(15.289307%, 15.289307%, 15.289307%)" d="M 18.597656 0.601562 C 8.671875 0.601562 0.597656 8.675781 0.597656 18.601562 C 0.597656 28.527344 8.671875 36.601562 18.597656 36.601562 C 22.601562 36.601562 26.390625 35.316406 29.59375 32.851562 C 30.867188 31.734375 30.84375 30.140625 30.253906 29.058594 C 29.882812 28.371094 29.316406 27.902344 28.65625 27.671875 L 28.960938 27.335938 C 29.410156 26.828125 29.605469 26.15625 29.5 25.488281 C 29.394531 24.820312 29 24.238281 28.414062 23.898438 L 24.453125 21.578125 C 23.554688 21.050781 22.328125 21.246094 21.636719 22.023438 L 20.757812 23.011719 C 20.613281 23.171875 20.414062 23.261719 20.199219 23.261719 C 19.941406 23.261719 19.714844 23.140625 19.574219 22.925781 L 14.746094 15.640625 C 14.621094 15.457031 14.589844 15.238281 14.648438 15.023438 C 14.710938 14.808594 14.851562 14.640625 15.054688 14.546875 L 16.4375 13.90625 C 17.40625 13.457031 17.929688 12.375 17.679688 11.339844 L 16.601562 6.878906 C 16.28125 5.542969 14.726562 4.78125 13.46875 5.363281 L 12.238281 5.933594 C 10.414062 6.78125 9.070312 8.378906 8.554688 10.320312 L 8.328125 11.164062 C 7.921875 12.6875 8.0625 14.316406 8.726562 15.742188 L 9.835938 18.136719 C 11.460938 21.644531 13.679688 24.800781 16.429688 27.515625 L 17.347656 28.421875 C 18.703125 29.761719 20.503906 30.535156 22.414062 30.597656 L 22.660156 30.601562 C 24.3125 30.601562 25.90625 30.054688 27.207031 29.074219 C 27.234375 29.070312 27.257812 29.078125 27.285156 29.070312 C 28.304688 28.785156 28.808594 29.539062 28.9375 29.773438 C 29.242188 30.335938 29.257812 31.15625 28.644531 31.695312 C 25.742188 33.925781 22.269531 35.101562 18.601562 35.101562 C 9.503906 35.101562 2.101562 27.699219 2.101562 18.601562 C 2.101562 9.503906 9.503906 2.101562 18.601562 2.101562 C 27.699219 2.101562 35.101562 9.503906 35.101562 18.601562 C 35.101562 19.015625 35.4375 19.351562 35.851562 19.351562 C 36.265625 19.351562 36.601562 19.015625 36.601562 18.601562 C 36.597656 8.675781 28.523438 0.601562 18.597656 0.601562 Z M 18.597656 0.601562 " fill-opacity="1" fill-rule="nonzero"/></g></svg>