<svg xmlns="http://www.w3.org/2000/svg" xmlns:xlink="http://www.w3.org/1999/xlink" width="50" zoomAndPan="magnify" viewBox="0 0 37.5 37.499999" height="50" preserveAspectRatio="xMidYMid meet" version="1.0"><defs><clipPath id="id1"><path d="M 0.390625 1.101562 L 37 1.101562 L 37 36.351562 L 0.390625 36.351562 Z M 0.390625 1.101562 " clip-rule="nonzero"/></clipPath></defs><g clip-path="url(#id1)"><path fill="rgb(0%, 0%, 0%)" d="M 34.460938 10.070312 C 34.277344 9.726562 33.855469 9.597656 33.511719 9.777344 C 33.167969 9.957031 33.035156 10.382812 33.21875 10.722656 C 35.253906 14.578125 35.664062 18.992188 34.371094 23.15625 C 33.082031 27.320312 30.242188 30.730469 26.378906 32.761719 C 22.511719 34.792969 18.085938 35.203125 13.914062 33.914062 C 9.742188 32.625 6.324219 29.792969 4.285156 25.9375 C 2.25 22.082031 1.839844 17.667969 3.132812 13.503906 C 4.320312 9.671875 6.835938 6.488281 10.246094 4.417969 L 9.722656 6.105469 L 10.867188 6.457031 L 12.0625 2.617188 L 8.210938 1.425781 L 7.855469 2.570312 L 9.671875 3.132812 C 5.890625 5.375 3.101562 8.867188 1.792969 13.089844 C 0.390625 17.609375 0.835938 22.402344 3.046875 26.589844 C 5.257812 30.777344 8.96875 33.851562 13.5 35.25 C 15.234375 35.789062 17.007812 36.054688 18.773438 36.054688 C 21.621094 36.054688 24.441406 35.363281 27.03125 34 C 31.226562 31.792969 34.308594 28.089844 35.714844 23.570312 C 37.117188 19.050781 36.671875 14.253906 34.460938 10.070312 Z M 34.460938 10.070312 " fill-opacity="1" fill-rule="nonzero"/></g><path fill="rgb(0%, 0%, 0%)" d="M 12.003906 25.625 C 11.761719 25.929688 11.8125 26.367188 12.113281 26.609375 C 12.242188 26.710938 12.398438 26.761719 12.550781 26.761719 C 12.757812 26.761719 12.960938 26.671875 13.097656 26.5 L 17.96875 20.425781 C 18.214844 20.519531 18.476562 20.574219 18.753906 20.574219 C 19.992188 20.574219 21.003906 19.566406 21.003906 18.328125 C 21.003906 17.335938 20.351562 16.5 19.453125 16.203125 L 19.453125 5.957031 C 19.453125 5.570312 19.140625 5.253906 18.753906 5.253906 C 18.367188 5.253906 18.050781 5.570312 18.050781 5.957031 L 18.050781 16.207031 C 17.15625 16.5 16.5 17.335938 16.5 18.332031 C 16.5 18.78125 16.640625 19.203125 16.871094 19.558594 Z M 18.753906 17.484375 C 19.21875 17.484375 19.601562 17.863281 19.601562 18.332031 C 19.601562 18.796875 19.21875 19.175781 18.753906 19.175781 C 18.285156 19.175781 17.902344 18.796875 17.902344 18.332031 C 17.902344 17.863281 18.285156 17.484375 18.753906 17.484375 Z M 18.753906 17.484375 " fill-opacity="1" fill-rule="nonzero"/></svg>